<svg width="28" height="28" viewBox="0 0 28 28" fill="none" xmlns="http://www.w3.org/2000/svg">
<g opacity="0.8">
<path d="M17.0804 4.06014C17.2904 4.06014 17.5004 4.06014 17.9204 4.06014V7.21014C17.7104 7.21014 17.2904 7.21014 16.8704 7.21014C16.4504 7.21014 16.0304 7.21014 15.8204 7.42014C15.6104 7.63014 15.6104 7.84014 15.6104 8.33014C15.6104 8.75014 15.6104 9.03014 15.6104 9.45014H17.9204V12.1101H15.6104V23.6601H12.0404V12.0401H10.1504V9.38014H12.0404V8.47014C12.0404 6.93014 12.2504 5.81014 12.6704 5.32014C13.3004 4.41014 14.5604 3.99014 16.4504 3.99014C16.6604 4.06014 16.8704 4.06014 17.0804 4.06014Z" fill="#FCF9F9"/>
</g>
</svg>
